<svg id="ICON" xmlns="http://www.w3.org/2000/svg" viewBox="0 0 168 128"><title>mywebsite</title><g id="mywebsite"><path d="M34,76H10a2,2,0,0,1-2-2V66a2,2,0,0,1,2-2H34a2,2,0,0,1,2,2v8A2,2,0,0,1,34,76ZM12,72H32V68H12Zm22,40H10a2,2,0,0,1-2-2V82a2,2,0,0,1,2-2H34a2,2,0,0,1,2,2v28A2,2,0,0,1,34,112Zm-22-4H32V84H12ZM138,32H54a2,2,0,0,1-2-2V22a2,2,0,0,1,2-2h84a2,2,0,0,1,2,2v8A2,2,0,0,1,138,32ZM56,28h80V24H56Zm82,60H54a2,2,0,0,1-2-2V38a2,2,0,0,1,2-2h84a2,2,0,0,1,2,2V86A2,2,0,0,1,138,88ZM56,84h80V40H56Z" style="fill:#0b9dcc"/><path d="M160,0H32a8,8,0,0,0-8,8V38a2,2,0,0,0,4,0V8a4,4,0,0,1,4-4H160a4,4,0,0,1,4,4v92a4,4,0,0,1-4,4H54a2,2,0,0,0,0,4H76v12a4,4,0,0,1-4,4H58a2,2,0,0,0,0,4h77a2,2,0,0,0,0-4H120a4,4,0,0,1-4-4V108h44a8,8,0,0,0,8-8V8A8,8,0,0,0,160,0ZM113.08,124H78.92A8,8,0,0,0,80,120V108h32v12A8,8,0,0,0,113.08,124ZM36,48H8a8,8,0,0,0-8,8v64a8,8,0,0,0,8,8H36a8,8,0,0,0,8-8V56A8,8,0,0,0,36,48Zm4,72a4,4,0,0,1-4,4H8a4,4,0,0,1-4-4V56a4,4,0,0,1,4-4H36a4,4,0,0,1,4,4Z" style="fill:#001b41"/></g></svg>